<svg 
   xmlns="http://www.w3.org/2000/svg" 
   xmlns:xlink="http://www.w3.org/1999/xlink"
   width="16px" 
   height="16px" 
   viewBox="34.396 111.125 160 160" 
   version="1.1">
  <defs>
    <linearGradient id="brandGradient">
      <stop style="stop-color:#0b4a8c;stop-opacity:1;" offset="0" />
      <stop style="stop-color:#127be7;stop-opacity:0.996;" offset="1" />
    </linearGradient>
    
    <linearGradient
       xlink:href="#brandGradient"
       id="bgFill"
       x1="37.33" y1="189.66"
       x2="151.45" y2="152.58"
       gradientUnits="userSpaceOnUse"
       gradientTransform="matrix(1.3333334,0,0,1.3333334,-11.465279,-37.041671)" />
  </defs>

  <rect
     style="fill:url(#bgFill); stroke:none;"
     width="160"
     height="160"
     x="34.395836"
     y="111.125"
     rx="15.755" ry="15.755" />

  <g id="icon-content">
    <path
       style="fill:#b6d9ff; fill-opacity:1; stroke:none;"
       d="m 126.3831,214.07807 -12.27027,-11.9139 11.75325,-12.30929 c 0,0 2.2871,-1.60603 3.82981,-0.0633 1.54306,1.54305 -0.69008,5.70484 3.47968,8.09225 0,0 3.27586,1.73855 8.27292,-3.25885 4.99704,-4.99706 2.87434,-7.88841 2.87434,-7.88841 -2.38738,-4.16979 -6.54917,-1.93663 -8.09225,-3.47969 -1.54271,-1.54272 -0.007,-3.85043 -0.007,-3.85043 l 12.16728,-11.51671 34.55095,34.37272 -11.9311,11.9311 c 0,0 -1.53619,2.30776 0.007,3.8504 1.54307,1.54313 5.70487,-0.69004 8.09224,3.47937 0,0 2.12273,2.89172 -2.87435,7.88879 -4.99705,4.99701 -8.2729,3.25881 -8.2729,3.25881 -4.16976,-2.38736 -1.93661,-6.54915 -3.4797,-8.09221 -1.5427,-1.5427 -3.85042,-0.007 -3.85042,-0.007 l -11.96585,11.96586 -11.97997,-12.07921 c 0,0 -2.20238,-1.5105 -3.73966,0.0276 -1.53762,1.53766 0.70963,5.70708 -3.45182,8.08033 0,0 -3.27005,1.727 -8.28449,-3.28745 -5.01406,-5.01444 -2.90149,-7.89854 -2.90149,-7.89854 2.37326,-4.16144 6.54266,-1.91423 8.08031,-3.4515 1.53763,-1.53762 -0.007,-3.8508 -0.007,-3.8508 z" />

    <path
       style="fill:#1486ff; fill-opacity:1; stroke:none;"
       d="m 67.072297,179.96253 12.529568,-12.52937 12.027401,12.02723 c 0,0 1.620429,2.3246 0.05781,3.88726 -1.562983,1.56295 -5.78416,-0.70497 -8.200864,3.5202 0,0 -1.759218,3.31933 3.311337,8.39024 5.070549,5.07053 8.000287,2.92103 8.000287,2.92103 4.224796,-2.41669 1.957258,-6.63785 3.519876,-8.20052 1.562984,-1.56293 3.903658,-0.007 3.903658,-0.007 L 114.12208,202.15993 79.092703,237.3133 66.99627,225.20237 c 0,0 -2.341037,-1.55937 -3.903656,0.007 -1.562984,1.563 0.704919,5.78416 -3.52017,8.20049 0,0 -2.929517,2.14951 -8.000139,-2.92102 -5.070589,-5.07052 -3.31123,-8.39022 -3.31123,-8.39022 2.416665,-4.22516 6.63788,-1.95726 8.200609,-3.51988 1.562767,-1.56301 0.0033,-3.90362 0.0033,-3.90362 L 44.323033,202.53325 56.557925,190.39907 c 0,0 1.529202,-2.23136 -0.03099,-3.79144 -1.560199,-1.5601 -5.785138,0.71434 -8.194852,-3.50648 0,0 -1.753934,-3.31675 3.325019,-8.39563 5.078956,-5.07928 8.004922,-2.93447 8.004922,-2.93447 4.221249,2.40983 1.946471,6.63465 3.506557,8.19474 1.560087,1.56042 3.903658,-0.007 3.903658,-0.007 z" />

    <path
       style="fill:#ffffff; fill-opacity:1; stroke:none;"
       d="M 91.83528,179.70692 79.600779,167.43441 91.318263,155.48373 c 0,0 2.287095,-1.60619 3.829798,-0.0633 1.54307,1.54289 -0.69007,5.70467 3.479696,8.09219 0,0 3.275853,1.7384 8.272903,-3.25872 4.99706,-4.99715 2.87435,-7.88876 2.87435,-7.88876 -2.38738,-4.16972 -6.54919,-1.93653 -8.09225,-3.4794 -1.5427,-1.54288 -0.007,-3.85057 -0.007,-3.85057 l 11.97633,-11.88578 34.74187,34.74192 -11.93108,11.93111 c 0,0 -1.13656,2.13422 0.40615,3.67726 0.3549,0.35 0.86,0.32 1.45,0.36 0.55,0.03 1.14,0.04 1.77,0.12 0.23,0.02 0.48,0.11 0.72,0.14 1.46,0.18 2.70901,0.9755 3.83968,2.95033 0,0 2.01615,2.95829 -2.9809,7.95538 -4.99706,4.99706 -8.27291,3.25886 -8.27291,3.25886 -2.62831,-1.50507 -2.9447,-3.61 -3.03432,-5.43353 -0.0279,-0.56532 -0.10294,-1.10331 -0.14752,-1.584 -0.0395,-0.42424 -0.0304,-0.8074 -0.29784,-1.07473 -1.54271,-1.54271 -3.85044,-0.007 -3.85044,-0.007 l -11.96584,11.96587 -11.97999,-12.07955 c 0,0 -2.202357,-1.51017 -3.73964,0.0276 -1.537639,1.53763 0.709626,5.70701 -3.451813,8.08027 0,0 -1.263126,1.08312 -3.423016,0.38427 -0.728785,-0.2358 -1.623662,-0.59509 -2.542563,-1.22003 -0.739609,-0.50295 -1.664246,-1.38127 -2.510561,-2.22766 -5.014436,-5.01444 -3.061499,-8.18656 -3.061499,-8.18656 0.482668,-0.8465 1.167695,-1.68381 1.761773,-2.08573 0.857298,-0.58 2.143799,-0.81853 3.043451,-0.90932 1.541848,-0.15545 2.565368,0.0928 3.33871,-0.68075 0.471321,-0.47124 0.653094,-0.82329 0.678533,-1.35134 0.05756,-1.19466 -0.397031,-2.2111 -0.397031,-2.2111 z" />
  </g>
</svg>